<svg xmlns="http://www.w3.org/2000/svg" viewBox="0 0 200 68"><path fill-rule="nonzero" d="M70.837 26.163c5.913 0 11.092 4.092 11.081 11.838v.34h-18.23v.597c.042 6.745 2.067 12.072 8.374 12.072 4.422 0 7.48-2.43 8.588-6.116h.959c-1.119 4.198-4.805 7.096-10.133 7.096-7.586 0-12.125-5.615-12.125-13.062 0-8.28 5.626-12.765 11.486-12.765zm75.063 0c5.914 0 11.092 4.092 11.081 11.838v.34h-18.23v.597c.042 6.745 2.067 12.072 8.374 12.072 4.422 0 7.48-2.43 8.588-6.116h.96c-1.12 4.198-4.806 7.096-10.134 7.096-7.586 0-12.125-5.615-12.125-13.062 0-8.28 5.626-12.765 11.486-12.765zM93.97 19.706v7.054h6.552v.788H93.97V47.11c0 2.867.895 3.602 3.846 3.602.98 0 1.865 0 2.706-.053v.788c-1.193.043-2.418.096-3.75.096-4.837 0-6.755-1.172-6.755-5.711V27.548h-4.39v-.788h4.39v-3.452l3.793-3.602h.16zM110.61 17v15.77c.938-3.847 3.698-6.554 8.087-6.554 5.019 0 9.014 2.462 9.014 9.813V51.5h-3.942V34.794c0-5.37-2.216-7.587-5.71-7.587-4.092 0-7.449 3.154-7.449 10.943V51.5h-3.942V17h3.942zm-69.65 0L55.6 51.5h-4.433l-4.73-11.187-.341-.842-.459-1.087H31.244l-.426 1.087-.299.842L26.087 51.5H25L38.649 17h2.312zm134.228 9.654c.208.002.42.01.811.042v2.909c-.788-.15-1.374-.245-2.216-.245-2.408 0-5.711 1.182-5.711 6.85v15.28h-3.942V26.75h3.942v5.763a9.002 9.002 0 011.577-3.1c1.534-1.971 3.548-2.76 5.327-2.76zm-136.988-5.86l-6.627 16.76h13.702l-7.075-16.76zm32.636 6.115c-4.443 0-6.904 3.452-7.15 10.644h14.044c-.139-7.394-2.408-10.644-6.894-10.644zm75.074 0c-4.443 0-6.905 3.452-7.15 10.644h14.043c-.138-7.394-2.408-10.644-6.893-10.644z"></path></svg>