<?xml version="1.0" encoding="UTF-8"?>
<svg viewBox="0 0 156 71" version="1.1" xmlns="http://www.w3.org/2000/svg" xmlns:xlink="http://www.w3.org/1999/xlink">
    <title>dogan</title>
    <g id="logo" stroke="none" stroke-width="1">
        <g id="dogan" transform="translate(0.7042, 0.152)">
            <path d="M17.2718374,53.28 C21.3038374,48.744 23.8238374,46.368 28.9358374,41.832 L28.9358374,25.704 C28.9358374,20.592 28.2158374,18.144 24.1838374,16.128 C8.70383736,8.352 5.67983736,5.976 5.67983736,4.032 C5.67983736,3.6 5.82383736,3.096 6.03983736,2.664 L7.11983736,0.792 L6.03983736,-5.68434189e-14 C4.74383736,2.52 3.37583736,4.464 1.64783736,6.624 C-1.01616264,9.936 -0.44016264,11.664 3.30383736,13.752 L20.9438374,23.544 C21.0878374,27.36 21.1598374,30.888 21.1598374,34.128 C21.1598374,38.952 21.0158374,43.128 20.7278374,46.8 C17.1278374,45.216 15.0398374,43.56 13.3838374,41.688 C13.8878374,39.456 14.1758374,35.784 14.1758374,32.328 L14.1758374,22.248 L6.11183736,24.48 L6.11183736,35.424 C6.11183736,40.32 5.82383736,42.696 5.03183736,45.36 C6.90383736,48.6 12.9518374,52.056 17.2718374,53.28 Z" id="Path"></path>
            <path d="M46.7198374,53.28 C50.7518374,48.744 53.2718374,46.368 58.3838374,41.832 L58.3838374,28.584 C58.3838374,21.024 57.6638374,20.016 53.1278374,18.792 L44.1998374,16.416 L39.6638374,23.184 L35.0558374,24.48 L35.0558374,35.424 C35.0558374,40.32 34.7678374,42.696 33.9758374,45.36 C35.8478374,48.6 42.3278374,52.056 46.7198374,53.28 Z M42.3278374,41.688 C42.9038374,38.52 43.1198374,36.144 43.1198374,32.328 L43.1198374,24.192 C45.6398374,24.912 48.3758374,25.632 50.3918374,26.424 C50.4638374,29.16 50.5358374,31.68 50.5358374,34.2 C50.5358374,38.448 50.3918374,42.48 50.1758374,46.8 C46.4318374,45.144 43.9838374,43.56 42.3278374,41.688 Z" id="Shape"></path>
            <path d="M81.3518374,70.848 C83.0798374,68.256 84.9518374,65.952 86.9678374,63.792 C87.9038374,62.784 88.4078374,61.632 88.4078374,60.552 C88.4078374,59.04 87.4718374,57.528 85.3838374,56.16 C81.9998374,54.072 77.7518374,52.776 74.5838374,50.472 C78.3278374,46.296 83.0078374,41.472 87.4718374,37.512 L87.4718374,19.008 C87.4718374,16.272 87.7598374,13.752 88.1918374,10.8 L84.8798374,11.952 L84.8798374,19.728 C84.1598374,19.368 83.2958374,19.08 82.2158374,18.792 L73.2878374,16.416 L68.7518374,23.184 L64.1438374,24.48 L64.1438374,31.104 C64.1438374,36 63.8558374,38.376 63.0638374,41.04 C64.7198374,43.92 70.0478374,47.016 74.3678374,48.528 C73.5758374,49.32 72.6398374,50.184 71.4158374,51.264 C69.9038374,52.632 68.9678374,53.928 68.9678374,55.08 C68.9678374,56.016 69.5438374,56.88 70.8398374,57.6 L76.2398374,60.696 C80.5598374,63.216 82.0718374,64.872 82.0718374,66.456 C82.0718374,67.248 81.7118374,67.968 81.1358374,68.832 L80.2718374,70.056 L81.3518374,70.848 Z M71.4158374,37.368 C71.9198374,35.136 72.2078374,31.464 72.2078374,28.008 L72.2078374,24.192 C74.7278374,24.912 77.4638374,25.632 79.4798374,26.424 C79.6238374,29.592 79.6238374,31.824 79.6238374,33.912 C79.6238374,36.504 79.5518374,38.808 79.4078374,42.48 C75.5918374,40.896 73.0718374,39.24 71.4158374,37.368 Z" id="Shape"></path>
            <path d="M114.111837,53.28 C116.559837,50.4 118.647837,48.024 120.951837,45.936 L119.943837,44.856 C119.439837,45.504 118.935837,46.08 118.431837,46.584 C116.271837,45.072 115.047837,43.992 114.183837,42.408 C114.687837,39.6 114.975837,36.144 114.975837,32.4 L114.975837,24.264 C114.975837,21.24 114.111837,19.296 112.023837,18.864 L100.287837,16.416 L95.7518374,21.96 C94.2398374,23.832 93.0878374,25.92 93.0878374,27.72 C93.0878374,30.024 94.5278374,32.112 97.5518374,32.976 L92.8718374,34.344 L92.8718374,36.144 C92.8718374,40.68 92.5118374,42.84 91.7918374,45.36 C93.5918374,48.384 97.4798374,51.984 100.935837,53.28 C102.951837,51.12 104.751837,48.744 106.407837,46.296 C108.207837,49.032 111.231837,51.768 114.111837,53.28 Z M102.015837,31.896 C97.4078374,31.896 96.1118374,29.448 96.1118374,26.568 C96.1118374,25.848 96.3998374,24.624 97.1198374,23.256 C100.503837,23.688 103.671837,24.552 106.911837,25.56 L106.911837,30.96 C105.255837,31.608 103.455837,31.896 102.015837,31.896 Z M99.9278374,42.048 C100.359837,40.176 100.719837,36.936 100.719837,34.344 L100.719837,33.408 L100.863837,33.408 C102.735837,33.408 104.535837,33.264 106.911837,32.4 L106.911837,35.352 C106.911837,38.592 106.479837,43.344 104.535837,46.152 C102.375837,44.928 101.079837,43.704 99.9278374,42.048 Z" id="Shape"></path>
            <path d="M147.739837,53.28 C150.187837,50.4 152.275837,48.024 154.579837,45.936 L153.571837,44.856 C153.067837,45.504 152.563837,46.08 152.059837,46.584 C149.899837,45.072 148.675837,43.992 147.811837,42.408 C148.459837,40.032 148.603837,36.648 148.603837,32.328 L148.603837,24.264 C148.603837,22.248 148.171837,20.232 145.651837,19.224 L138.739837,16.416 C136.867837,18.288 134.995837,20.592 133.339837,23.256 L133.339837,19.8 L125.635837,16.416 C123.187837,19.296 121.099837,21.672 118.795837,23.76 L119.803837,24.84 C120.379837,24.192 120.883837,23.544 121.387837,23.04 L125.275837,24.912 L125.275837,35.424 C125.275837,40.32 124.987837,42.696 124.195837,45.36 C125.923837,48.384 129.307837,51.624 132.475837,53.28 L137.659837,47.16 C134.995837,45.36 133.483837,44.208 132.547837,42.408 C133.195837,40.032 133.339837,36.648 133.339837,32.328 L133.339837,25.848 C133.987837,24.912 134.635837,24.12 135.211837,23.4 C137.083837,23.976 138.811837,24.696 140.539837,25.56 L140.539837,35.424 C140.539837,40.32 140.251837,42.696 139.459837,45.36 C141.187837,48.384 144.571837,51.624 147.739837,53.28 Z" id="Path"></path>
        </g>
    </g>
</svg>