<svg xmlns="http://www.w3.org/2000/svg" viewBox="0 0 200 68"><path d="M26.714 53.004c4.057 0 6.779-2.587 6.779-6.434V22.961h-3.914l-.103 1.366-.098-.107a5.258 5.258 0 00-3.893-1.654h-2.412c-3.967 0-7.073 3.062-7.073 6.975v8.069c0 3.915 3.084 6.977 7.024 6.977h2.903c1.45 0 2.653-.663 3.409-1.22l.101-.076v3.692c0 1.64-1.29 2.376-2.574 2.376H23.42c-1.51 0-2.544-.797-2.717-2.083h-4.058c.288 3.376 3.044 5.728 6.723 5.728h3.346zm-3.495-12.06c-1.801 0-3.162-1.278-3.162-2.973v-8.79c0-1.694 1.389-3.017 3.162-3.017h3.102c1.719 0 3.116 1.267 3.116 2.82v8.987c0 1.695-1.34 2.973-3.116 2.973H23.22zM176.78 26.163c1.775 0 3.164 1.326 3.164 3.017v15.014H184V29.541c0-4.24-2.758-6.977-7.024-6.977h-2.802c-1.362 0-2.744.81-3.454 1.558l-.095.103-.104-1.264h-3.914v21.233h4.056V29.082c0-1.69 1.31-2.92 3.117-2.92h3.001zm-36.263 18.031V40.55h-2.578c-1.73 0-2.764-.991-2.764-2.66V26.557h5.342V22.96h-5.342v-8.09h-4.058v8.09h-3.642v3.597h3.642v11.217c0 3.96 2.52 6.42 6.578 6.42h2.822zm-49.946 0h2.82V40.55h-2.576c-1.733 0-2.765-.991-2.765-2.66V26.557h5.34V22.96h-5.34v-8.09h-4.053v8.09h-3.645v3.597h3.645v11.217c0 3.96 2.516 6.42 6.574 6.42m28.802-.002h4.057V14.001L119.374 14v30.192zm-16.945.395h3.632c1.595 0 2.888-.732 3.554-2.008l.1-.186.197 1.801h3.913V28.36c0-3.358-2.478-5.793-5.892-5.793h-4.676a5.924 5.924 0 00-5.935 5.726h4.053c.087-.907.817-2.13 1.882-2.13h4.676c1.012 0 1.837.801 1.837 1.786v3.663h-7.34c-3.25 0-5.893 2.625-5.893 5.846v1.238c0 2.86 2.068 5.892 5.892 5.892m-1.839-7.634c0-1.014.805-1.837 1.788-1.837h7.392v2.667c0 1.95-1.207 3.161-3.141 3.161h-4.25c-.984 0-1.789-.827-1.789-1.841v-2.15zm-22.919.262c0-3.328-2.27-5.741-5.397-5.741h-5.992c-1.003 0-1.789-.764-1.789-1.738v-1.785c0-1.003.786-1.787 1.789-1.787h4.527c1.383 0 2.084.634 2.084 1.884v.344h4.15v-.133c0-3.14-2.642-5.694-5.892-5.694h-4.723c-3.359 0-5.99 2.46-5.99 5.596v1.325c0 3.197 2.565 5.697 5.844 5.697h5.546c.987 0 1.786.823 1.786 1.834v2.088c0 .996-.837 1.837-1.833 1.837h-5.797c-1.193 0-1.934-.743-1.934-1.935v-.197h-4.102v.084c0 3.193 2.52 5.693 5.743 5.693h6.09c3.303 0 5.89-2.458 5.89-5.593v-1.78zm66.48.35c0 3.938 3.105 7.024 7.071 7.024h3.756c3.263 0 6.633-2.132 6.633-5.695v-.082h-4.104v.147c-.204 1.282-1.116 1.983-2.576 1.983h-3.412c-1.825 0-3.31-1.356-3.31-3.017v-2.813h13.453v-5.52c0-3.941-3.152-7.027-7.172-7.027h-3.164c-3.957 0-7.174 3.196-7.174 7.123v7.877zm4.058-8.383c0-1.693 1.411-3.019 3.21-3.019h2.971c1.804 0 3.212 1.326 3.212 3.019v2.43h-9.393v-2.43zM38.404 37.565c0 3.938 3.106 7.024 7.07 7.024h3.759c3.256 0 6.628-2.132 6.628-5.695v-.082h-4.104v.147c-.206 1.282-1.118 1.983-2.575 1.983H45.77c-1.826 0-3.313-1.356-3.313-3.017v-2.813h13.455v-5.52c0-3.941-3.152-7.027-7.174-7.027h-3.164c-3.955 0-7.17 3.196-7.17 7.123v7.877zm4.053-8.383c0-1.693 1.414-3.019 3.215-3.019h2.966c1.806 0 3.217 1.326 3.217 3.019v2.43h-9.398v-2.43z"></path></svg>