<svg xmlns="http://www.w3.org/2000/svg" viewBox="0 0 200 68"><path fill-rule="evenodd" d="M161.86 29.094c1.575-2.28 3.426-3.436 5.5-3.436.51 0 1.06.05 1.646.147v3.6c-.54-.14-1.29-.213-2.233-.213-1.963 0-3.667 1.04-5.065 3.09l-.016.025v15.088h-3.635V26.143h3.635v3.19l.167-.24zm19.265 4.926l8.896 13.375h-4.32l-6.94-10.847-.06-.095-2.49 2.47v8.472h-3.63V17.96h3.64v16.925l8.4-8.742h4.55l-7.96 7.822-.052.055zM40.89 15a4.366 4.366 0 014.362 4.36 4.367 4.367 0 01-4.36 4.362 4.366 4.366 0 01-4.362-4.36A4.366 4.366 0 0140.89 15zm0 6.476c1.167 0 2.115-.95 2.115-2.115 0-1.16-.948-2.11-2.114-2.11a2.119 2.119 0 00.01 4.24zm-20.76 4.182c4.753 0 7.163 2.627 7.163 7.808v13.93h-3.636v-13.77c0-1.763-.323-3.053-.96-3.834-.64-.787-1.702-1.185-3.152-1.185-1.958 0-3.94 1.166-5.888 3.467l-.02.025v15.29H10V17.96h3.636v11.06l.16-.18c1.872-2.112 4.003-3.182 6.335-3.182zm27.808 1.62c1.502 1.067 2.264 3.203 2.264 6.35v13.767h-3.615v-2.32l-.154.143C44.52 46.998 42.02 47.9 39 47.9c-2.096 0-3.843-.574-5.194-1.706-1.345-1.128-2.028-2.603-2.028-4.385 0-4.93 4.327-7.43 12.86-7.43h1.95v-.09c0-1.54-.084-2.67-.246-3.37-.166-.72-.635-1.32-1.394-1.79-.753-.47-1.958-.7-3.584-.7-3.395 0-5.19 1.22-5.34 3.63h-3.612c.317-4.26 3.396-6.42 9.154-6.42 2.716 0 4.86.54 6.372 1.62zm-1.35 14.6V37.01h-2.7c-5.555 0-8.373 1.547-8.373 4.598 0 1.116.42 1.987 1.25 2.59.82.593 1.94.895 3.326.895 1.27 0 2.5-.29 3.68-.858 1.18-.57 2.13-1.355 2.81-2.333l.02-.024zm18.833-16.22c4.76 0 7.17 2.627 7.17 7.808v13.93h-3.64v-13.77c0-1.763-.32-3.053-.96-3.834-.64-.787-1.7-1.185-3.15-1.185-1.96 0-3.94 1.166-5.89 3.467l-.02.025v15.29h-3.64V26.14h3.64v2.876l.16-.18c1.87-2.113 4.01-3.183 6.34-3.183zm14.09 3.03c1.69-2.01 3.85-3.03 6.41-3.03 2.29 0 4.24.712 5.82 2.12l.15.134v-9.95h3.61v29.433h-3.62v-2.728l-.16.195c-1.67 2.016-3.7 3.038-6.05 3.038-2.76 0-4.92-.994-6.43-2.955-1.51-1.968-2.28-4.66-2.28-8.005 0-3.463.86-6.24 2.56-8.253zm12.35 2.392c-1.65-1.75-3.57-2.635-5.7-2.635-1.65 0-2.99.724-3.98 2.15-.98 1.416-1.48 3.55-1.48 6.345 0 2.646.47 4.687 1.4 6.062.94 1.388 2.25 2.09 3.91 2.09 2.15 0 4.13-1.25 5.87-3.715l.02-.023v-10.25l-.02-.024zm11.16-4.937l5.75 16.96 5.74-16.96h3.93l-8.03 21.252h-3.27L99.1 26.143h3.924zm40.85-.485c2.99 0 5.39.972 7.13 2.89 1.74 1.92 2.62 4.69 2.62 8.23v.82h-15.56l.01.096c.15 2.475.8 4.345 1.92 5.56 1.12 1.22 2.57 1.84 4.3 1.84 1.32 0 2.51-.35 3.53-1.037 1.02-.678 1.57-1.648 1.65-2.883h3.75c-.31 2.136-1.273 3.803-2.87 4.955-1.623 1.17-3.662 1.77-6.054 1.77-3.654 0-6.416-1.38-8.206-4.1l-.08-.12-.076.12c-.73 1.19-1.75 2.18-3.04 2.95-1.283.76-3.24 1.15-5.81 1.15-2.08 0-3.79-.57-5.08-1.7-1.285-1.12-1.94-2.6-1.94-4.4 0-4.93 4.185-7.43 12.435-7.43h1.97v-.09c0-1.3-.1-2.35-.288-3.14-.194-.8-.66-1.46-1.39-1.97-.726-.5-1.85-.754-3.344-.754-3.18 0-4.91 1.225-5.134 3.64H120.7c.342-4.26 3.353-6.424 8.952-6.424 3.623 0 6.08.906 7.294 2.69l.06.094.08-.08c1.728-1.79 4.016-2.7 6.806-2.7zm-5.74 9.13h11.67l-.01-.104c-.62-4.14-2.61-6.24-5.91-6.24-3.23 0-5.15 2.1-5.72 6.24l-.01.105zm-3.68 3.85V37.01h-2.69c-5.29 0-7.97 1.547-7.97 4.598 0 2.312 1.47 3.485 4.36 3.485 1.9 0 3.45-.552 4.59-1.642 1.15-1.09 1.73-2.71 1.73-4.81z"></path></svg>