<svg viewBox="0 0 200 68" version="1.1" xmlns="http://www.w3.org/2000/svg" xmlns:xlink="http://www.w3.org/1999/xlink"><title>hodina</title><g id="hodina" stroke="none" stroke-width="1" fill="currentColor" fill-rule="evenodd"><g transform="translate(10.000000, 21.000000)"><g id="Layer_1" fill="currentColor" fill-rule="nonzero"><path d="M169.246892,0.353731621 L169.136518,0.190214174 L167.738447,0.190214174 L157.132505,25.4519913 L156.911757,25.8858131 L159.44367,25.8858131 L163.042533,17.2093771 L173.785607,17.2093771 L177.387814,25.8858131 L180,25.8858131 L169.246892,0.353731621 Z M163.918836,15.2071226 L167.567869,6.53068663 C167.80534,5.98006666 168.059535,5.39941286 168.343832,4.56847726 C168.531133,5.03233288 168.818775,5.56960449 169.260271,6.52067536 L172.912648,15.1971114 L163.918836,15.2071226 Z" id="Shape"></path><polygon id="Path" points="21.0714087 0.196888355 21.0714087 25.8924873 19.0646078 25.8924873 19.0646078 13.5452514 2.00680083 13.5452514 2.00680083 25.8924873 0 25.8924873 0 0.196888355 2.00680083 0.196888355 2.00680083 11.2092879 19.0646078 11.2092879 19.0646078 0.196888355"></polygon><rect id="Rectangle" x="108.367245" y="0.196888355" width="2.34126763" height="25.6955989"></rect><path d="M129.378449,8.36274947 L127.565639,6.27039355 C126.896706,5.50619977 126.371593,4.86881543 125.99699,4.41497109 L129.378449,8.36274947 Z" id="Path"></path><path d="M73.5258376,25.9792516 L73.5258376,0.353731621 L81.017894,0.353731621 C84.0124868,0.353731621 86.5945705,0.939947233 88.7641452,2.11237846 C90.9195475,3.2695274 92.6610943,5.06660371 93.7477005,7.25483533 C94.7168008,9.10225619 95.2226992,11.1564218 95.2226992,13.2415762 C95.2219255,14.7985283 94.9198352,16.3406842 94.3330174,17.7833567 C93.7541966,19.2324554 92.9381402,20.5755597 91.9181671,21.7578318 C91.0125551,22.843255 89.918028,23.756686 88.6872178,24.4542012 C87.4334252,25.1136275 86.0761007,25.5548871 84.6736161,25.7590036 C83.120306,25.9476533 81.5555045,26.0257161 79.9910809,25.9926 L73.5258376,25.9792516 Z M76.101232,23.6633106 L79.8138135,23.6633106 C82.3000167,23.6633106 84.2265455,23.4942314 85.5933999,23.1560728 C86.3867718,22.9455046 87.1442873,22.6182164 87.8410168,22.1849794 C88.679158,21.654312 89.4304657,20.9981258 90.0685657,20.2394555 C90.8472527,19.3267749 91.4688722,18.2915859 91.9081331,17.1760062 C92.4091684,15.9321189 92.6603176,14.6021163 92.6473048,13.2615987 C92.6633823,11.5197891 92.2498794,9.80076369 91.4432243,8.25596256 C90.837676,7.1121691 90.0205679,6.09309792 89.0350633,5.25258087 C87.9719879,4.35513527 86.7307214,3.69212431 85.3927198,3.30705695 C83.9678912,2.89548242 82.1082558,2.68969516 79.8138135,2.68969516 L76.101232,2.68969516 L76.101232,23.6633106 Z" id="Shape"></path><path d="M145.49306,0.196888355 L145.49306,25.8924873 L144.118401,25.8924873 L143.151792,24.7645506 L129.378449,8.69645854 L125.99699,4.74868016 L126.093985,7.37830769 L126.093985,25.9058356 L123.752718,25.9058356 L123.752718,0.0400450892 L124.849769,0.0400450892 L124.956798,0 L141.496182,18.9880465 C142.128324,19.7388919 142.633369,20.3996359 143.081554,20.9903009 L143.151792,21.0804024 L143.151792,0.196888355 L145.49306,0.196888355 Z" id="Path"></path></g><g id="Layer_2" transform="translate(34.450081, 0.263629)"><line x1="12.3083784" y1="13.4351283" x2="18.6465244" y2="7.1146784" id="Path"></line><path d="M12.8903507,4.42206007e-07 C5.77305414,-0.00184190046 0.00184801594,5.75330181 4.4328678e-07,12.8544742 C-0.00184624237,19.9556467 5.76636509,25.7137784 12.8836616,25.7156219 C20.0009581,25.7174646 25.7721645,19.9623211 25.7740119,12.8611487 C25.7684844,5.76302372 20.004589,0.00920035885 12.8903507,4.42206007e-07 Z M12.8903507,23.4564124 C8.593275,23.4577616 4.7186277,20.8759904 3.07358308,16.9152621 C1.42853846,12.9545339 2.33715607,8.39507786 5.37564756,5.36347001 C8.41413904,2.33186216 12.9839479,1.42530301 16.9536694,3.06662081 C20.923391,4.70793862 23.5110245,8.57380798 23.5096722,12.8611487 C23.4967829,18.7063346 18.7488157,23.4405613 12.8903507,23.4497377 L12.8903507,23.4564124 Z" id="Shape" fill="currentColor" fill-rule="nonzero"></path><path d="M18.6465244,7.66529838 L13.2716428,13.0280032 C13.198098,13.101432 13.0980758,13.1423121 12.9940354,13.1414773 C12.8910792,13.1417913 12.7922894,13.1009225 12.7197726,13.0280032 C12.5701838,12.8761022 12.5701838,12.6326214 12.7197726,12.4807204 L18.0979988,7.1146784 L18.6465244,7.66529838 Z" id="Path" stroke="#000000" stroke-width="1.33786722" fill="currentColor" fill-rule="nonzero"></path></g></g></g></svg>