<svg viewBox="0 0 200 68" version="1.1" xmlns="http://www.w3.org/2000/svg" xmlns:xlink="http://www.w3.org/1999/xlink"><title>Artboard</title><g id="Artboard" stroke="none" stroke-width="1" fill="currentColor" fill-rule="evenodd"><g id="minimal-app" transform="translate(20.000000, 18.000000)" fill="currentColor" fill-rule="nonzero"><path d="M23.5506858,10.768359 C24.8385471,10.768359 25.9344638,11.0012704 26.8387464,11.4670777 C27.770361,11.9054754 28.5238523,12.494587 29.0992202,13.2343967 C29.7020753,13.974222 30.140473,14.8235613 30.4144134,15.7826631 C30.688509,16.7416096 30.8254792,17.7280434 30.8254792,18.7419643 L30.8254792,31.0720752 L25.8934659,31.0720752 L25.8934659,20.1393085 C25.8934659,19.5639406 25.8523127,18.9610855 25.7701617,18.3308985 C25.6878553,17.7007114 25.509732,17.1390095 25.2357916,16.6457926 C24.9618513,16.1250886 24.5781174,15.7005121 24.0849005,15.3715973 C23.6191709,15.0428378 22.9889839,14.8783804 22.1943394,14.8783804 C21.4271822,14.8783804 20.769508,15.0428378 20.221472,15.3715973 C19.673436,15.7005121 19.2213723,16.1250886 18.8651256,16.6457926 C18.5090342,17.1663414 18.2486046,17.7555306 18.0843025,18.4130495 C17.9198451,19.0432365 17.837694,19.6734236 17.837694,20.3037659 L17.837694,31.0720752 L12.9055254,31.0720752 L12.9055254,19.1528748 C12.9055254,17.9198327 12.6042532,16.906067 12.001398,16.1114226 C11.4260301,15.2894463 10.5080815,14.8783804 9.24770743,14.8783804 C8.50783555,14.8783804 7.86392044,15.0428378 7.31591551,15.3715973 C6.76791058,15.6730249 6.3158003,16.0702694 5.9596002,16.5634863 C5.63079414,17.0567031 5.37048869,17.6322263 5.17868386,18.2897453 C5.01427306,18.9199323 4.93207543,19.5639406 4.93207543,20.2214596 L4.93207543,31.0720752 L0,31.0720752 L0,11.3437735 L4.685467,11.3437735 L4.685467,14.5085144 L4.76768016,14.5085144 C4.98687903,14.0153131 5.27457851,13.5495058 5.63079414,13.111108 C6.01438827,12.6726948 6.45280154,12.2753881 6.94600287,11.919188 C7.46661376,11.5629724 8.05572527,11.2889699 8.7133374,11.0971651 C9.37101165,10.8779662 10.0970157,10.768359 10.8916601,10.768359 C12.4261298,10.768359 13.7001698,11.1108776 14.7140908,11.7958838 C15.7278564,12.4808899 16.5086796,13.3851105 17.0567156,14.5085144 C17.7143898,13.3028973 18.5911853,12.3849953 19.6872573,11.7547772 C20.7831739,11.0971651 22.0710352,10.768359 23.5506858,10.768359 Z M36.6473328,11.3437735 L41.5793461,11.3437735 L41.5793461,31.0720752 L36.6473328,31.0720752 L36.6473328,11.3437735 Z M35.9486606,4.64437905 C35.9486606,3.84976569 36.2362669,3.164744 36.8116349,2.58934504 C37.41449,1.98653651 38.1679812,1.68512448 39.0722639,1.68512448 C39.9763913,1.68512448 40.7300378,1.97282396 41.3327376,2.54823846 C41.9629247,3.09624339 42.2780182,3.79496209 42.2780182,4.64437905 C42.2780182,5.49378048 41.9629247,6.20619621 41.3327376,6.78161071 C40.7300378,7.32961564 39.9763913,7.6036181 39.0722639,7.6036181 C38.1679812,7.6036181 37.41449,7.31591862 36.8116349,6.74050412 C36.2362669,6.1376956 35.9486606,5.43897689 35.9486606,4.64437905 Z M47.5627064,11.3437735 L52.2482666,11.3437735 L52.2482666,14.5085144 L52.3304176,14.5085144 C52.7688154,13.5221117 53.5223066,12.6589977 54.5908914,11.919188 C55.6869634,11.1519687 56.9748246,10.768359 58.4544752,10.768359 C59.7421812,10.768359 60.8382532,11.0012704 61.7423806,11.4670777 C62.6739952,11.9054754 63.4276417,12.494587 64.0030096,13.2343967 C64.6058647,13.974222 65.0442625,14.8235613 65.3182028,15.7826631 C65.5921432,16.7416096 65.7292686,17.7280434 65.7292686,18.7419643 L65.7292686,31.0720752 L60.7971,31.0720752 L60.7971,20.1393085 C60.7971,19.5639406 60.7561021,18.9610855 60.6737958,18.3308985 C60.5916448,17.7007114 60.4135214,17.1390095 60.1395811,16.6457926 C59.8654854,16.1250886 59.4819068,15.7005121 58.98869,15.3715973 C58.5229603,15.0428378 57.8927733,14.8783804 57.0981289,14.8783804 C56.3034844,14.8783804 55.6184783,15.0428378 55.0431104,15.3715973 C54.4675872,15.6730249 53.9881916,16.0702694 53.6044577,16.5634863 C53.2483663,17.0567031 52.9742706,17.6322263 52.7824813,18.2897453 C52.590692,18.9199323 52.494875,19.5639406 52.494875,20.2214596 L52.494875,31.0720752 L47.5627064,31.0720752 L47.5627064,11.3437735 Z M71.566807,11.3437735 L76.4988203,11.3437735 L76.4988203,31.0720752 L71.566807,31.0720752 L71.566807,11.3437735 Z M70.8681349,4.64437905 C70.8681349,3.84976569 71.1557412,3.164744 71.7312644,2.58934504 C72.3339642,1.98653651 73.0874554,1.68512448 73.9917381,1.68512448 C74.8958655,1.68512448 75.649512,1.97282396 76.2522119,2.54823846 C76.8823989,3.09624339 77.1976477,3.79496209 77.1976477,4.64437905 C77.1976477,5.49378048 76.8823989,6.20619621 76.2522119,6.78161071 C75.649512,7.32961564 74.8958655,7.6036181 73.9917381,7.6036181 C73.0874554,7.6036181 72.3339642,7.31591862 71.7312644,6.74050412 C71.1557412,6.1376956 70.8681349,5.43897689 70.8681349,4.64437905 Z M106.03282,10.768359 C107.320681,10.768359 108.416753,11.0012704 109.32088,11.4670777 C110.252495,11.9054754 111.005986,12.494587 111.58151,13.2343967 C112.184209,13.974222 112.622607,14.8235613 112.896703,15.7826631 C113.170643,16.7416096 113.307613,17.7280434 113.307613,18.7419643 L113.307613,31.0720752 L108.3756,31.0720752 L108.3756,20.1393085 C108.3756,19.5639406 108.334447,18.9610855 108.252296,18.3308985 C108.170145,17.7007114 107.992021,17.1390095 107.717926,16.6457926 C107.443985,16.1250886 107.060407,15.7005121 106.56719,15.3715973 C106.101305,15.0428378 105.471118,14.8783804 104.676629,14.8783804 C103.909316,14.8783804 103.251797,15.0428378 102.703761,15.3715973 C102.155725,15.7005121 101.703662,16.1250886 101.347415,16.6457926 C100.991168,17.1663414 100.730894,17.7555306 100.566437,18.4130495 C100.402134,19.0432365 100.319828,19.6734236 100.319828,20.3037659 L100.319828,31.0720752 L95.3878148,31.0720752 L95.3878148,19.1528748 C95.3878148,17.9198327 95.0863872,16.906067 94.4835321,16.1114226 C93.9081642,15.2894463 92.9902155,14.8783804 91.7298415,14.8783804 C90.9900162,14.8783804 90.3461632,15.0428378 89.7981272,15.3715973 C89.2500912,15.6730249 88.7980275,16.0702694 88.4417808,16.5634863 C88.1130214,17.0567031 87.852747,17.6322263 87.6609577,18.2897453 C87.4965003,18.9199323 87.4143492,19.5639406 87.4143492,20.2214596 L87.4143492,31.0720752 L82.4821806,31.0720752 L82.4821806,11.3437735 L87.1677408,11.3437735 L87.1677408,14.5085144 L87.2498919,14.5085144 C87.4691684,14.0153131 87.7567747,13.5495058 88.1130214,13.111108 C88.4966,12.6726948 88.9349977,12.2753881 89.4282146,11.919188 C89.9487633,11.5629724 90.5379525,11.2889699 91.1954714,11.0971651 C91.8531457,10.8779662 92.579305,10.768359 93.3739494,10.768359 C94.9082639,10.768359 96.1824592,11.1108776 97.1962248,11.7958838 C98.2099905,12.4808899 98.9909689,13.3851105 99.5390049,14.5085144 C100.196524,13.3028973 101.073475,12.3849953 102.169391,11.7547772 C103.265463,11.0971651 104.553325,10.768359 106.03282,10.768359 Z M131.295276,28.564993 L131.171971,28.564993 C130.678755,29.4417885 129.88411,30.1677925 128.788193,30.7433157 C127.692121,31.2913517 126.445413,31.5652921 125.048069,31.5652921 C124.253425,31.5652921 123.417627,31.4556538 122.540832,31.2365326 C121.691523,31.0447433 120.896879,30.7158285 120.157054,30.2500989 C119.44456,29.756882 118.84186,29.126695 118.348644,28.3593825 C117.882759,27.5648934 117.649972,26.5921256 117.649972,25.4412345 C117.649972,23.9617392 118.060882,22.7835162 118.882858,21.9065654 C119.732322,21.02977 120.814573,20.358585 122.129921,19.8927001 C123.445114,19.4269704 124.897278,19.1255429 126.486567,18.9884174 C128.103187,18.8241153 129.678655,18.7419643 131.213125,18.7419643 L131.213125,18.2487474 C131.213125,17.0157053 130.761061,16.1114226 129.856778,15.5360547 C128.979983,14.9331996 127.925064,14.6318186 126.692022,14.6318186 C125.650769,14.6318186 124.650669,14.8510485 123.691723,15.2894463 C122.732621,15.727844 121.938132,16.262214 121.30779,16.8924011 L118.759554,13.8920088 C119.882958,12.8508026 121.170819,12.0698862 122.623138,11.5492753 C124.102633,11.0286644 125.59595,10.768359 127.103088,10.768359 C128.856679,10.768359 130.295176,11.0149674 131.41858,11.5081843 C132.569471,12.0013856 133.473598,12.6453007 134.131273,13.4398986 C134.788792,14.2345119 135.241011,15.1249889 135.487619,16.1114226 C135.761559,17.0978563 135.898529,18.08429 135.898529,19.0707238 L135.898529,31.0720752 L131.295276,31.0720752 L131.295276,28.564993 Z M131.213125,22.0710228 L130.103387,22.0710228 C129.308742,22.0710228 128.4731,22.112176 127.596304,22.194327 C126.719509,22.2491461 125.911199,22.3997823 125.171373,22.6463907 C124.431548,22.8656672 123.815027,23.1944267 123.32181,23.6328244 C122.828593,24.0438902 122.581985,24.6192582 122.581985,25.3590834 C122.581985,25.8249684 122.677802,26.2222129 122.869746,26.5509724 C123.088868,26.8524 123.362963,27.0990084 123.691723,27.2907977 C124.020482,27.482587 124.390395,27.6195572 124.801461,27.7018635 C125.212371,27.7840146 125.623437,27.8251677 126.034503,27.8251677 C127.733275,27.8251677 129.021136,27.3729488 129.897931,26.4688214 C130.774727,25.5645387 131.213125,24.3314965 131.213125,22.7696949 L131.213125,22.0710228 Z M141.726905,0 L146.658919,0 L146.658919,31.0720752 L141.726905,31.0720752 L141.726905,0 Z M160,27.4552551 C160,28.6059909 159.588468,29.5650927 158.766958,30.3322499 C157.971848,31.0994071 157.012125,31.483141 155.889342,31.483141 C155.313197,31.483141 154.766559,31.3735028 154.244768,31.1542263 C153.752483,30.962437 153.312998,30.6884966 152.929419,30.3322499 C152.545841,29.9760032 152.244569,29.5650927 152.025603,29.0992078 C151.806637,28.6059909 151.696377,28.0717762 151.696377,27.496253 C151.696377,26.9483723 151.806637,26.4276682 152.025603,25.9344513 C152.244569,25.4412345 152.545841,25.016658 152.929419,24.6604113 C153.312998,24.2768327 153.752483,23.9754052 154.244768,23.7561286 C154.766559,23.5370074 155.313197,23.4273692 155.889342,23.4273692 C157.012125,23.4273692 157.971848,23.8109478 158.766958,24.578105 C159.588468,25.3454175 160,26.304364 160,27.4552551 Z" id="Shape"></path></g></g></svg>