<svg xmlns="http://www.w3.org/2000/svg" xmlns:xlink="http://www.w3.org/1999/xlink">
    <defs>
        <symbol id="aether" viewBox="0 0 200 68">
            <path d="M70.837 26.163c5.913 0 11.092 4.092 11.081 11.838v.34h-18.23v.597c.042 6.745 2.067 12.072 8.374 12.072 4.422 0 7.48-2.43 8.588-6.116h.959c-1.119 4.198-4.805 7.096-10.133 7.096-7.586 0-12.125-5.615-12.125-13.062 0-8.28 5.626-12.765 11.486-12.765zm75.063 0c5.914 0 11.092 4.092 11.081 11.838v.34h-18.23v.597c.042 6.745 2.067 12.072 8.374 12.072 4.422 0 7.48-2.43 8.588-6.116h.96c-1.12 4.198-4.806 7.096-10.134 7.096-7.586 0-12.125-5.615-12.125-13.062 0-8.28 5.626-12.765 11.486-12.765zm-51.93-6.457v7.054h6.552v.788H93.97V47.11c0 2.867.895 3.602 3.846 3.602.98 0 1.865 0 2.706-.053v.788c-1.193.043-2.418.096-3.75.096-4.837 0-6.755-1.172-6.755-5.711V27.548h-4.39v-.788h4.39v-3.452l3.793-3.602h.16zM110.61 17v15.77c.938-3.847 3.698-6.554 8.087-6.554 5.019 0 9.014 2.462 9.014 9.813V51.5h-3.942V34.794c0-5.37-2.216-7.587-5.71-7.587-4.092 0-7.449 3.154-7.449 10.943V51.5h-3.942V17h3.942zm-69.65 0L55.6 51.5h-4.433l-4.73-11.187-.341-.842-.459-1.087H31.244l-.426 1.087-.299.842L26.087 51.5H25L38.649 17h2.312zm134.228 9.654c.208.002.42.01.811.042v2.909c-.788-.15-1.374-.245-2.216-.245-2.408 0-5.711 1.182-5.711 6.85v15.28h-3.942V26.75h3.942v5.763a9.002 9.002 0 0 1 1.577-3.1c1.534-1.971 3.548-2.76 5.327-2.76zM38.2 20.794l-6.627 16.76h13.702L38.2 20.794zm32.636 6.115c-4.443 0-6.904 3.452-7.15 10.644H77.73c-.139-7.394-2.408-10.644-6.894-10.644zm75.074 0c-4.443 0-6.905 3.452-7.15 10.644h14.043c-.138-7.394-2.408-10.644-6.893-10.644z"/>             
        </symbol>
        <symbol id="gestalten" viewBox="0 0 200 68">
            <path d="M26.714 53.004c4.057 0 6.779-2.587 6.779-6.434V22.961h-3.914l-.103 1.366-.098-.107a5.258 5.258 0 0 0-3.893-1.654h-2.412c-3.967 0-7.073 3.062-7.073 6.975v8.069c0 3.915 3.084 6.977 7.024 6.977h2.903c1.45 0 2.653-.663 3.409-1.22l.101-.076v3.692c0 1.64-1.29 2.376-2.574 2.376H23.42c-1.51 0-2.544-.797-2.717-2.083h-4.058c.288 3.376 3.044 5.728 6.723 5.728h3.346zm-3.495-12.06c-1.801 0-3.162-1.278-3.162-2.973v-8.79c0-1.694 1.389-3.017 3.162-3.017h3.102c1.719 0 3.116 1.267 3.116 2.82v8.987c0 1.695-1.34 2.973-3.116 2.973H23.22zM176.78 26.163c1.775 0 3.164 1.326 3.164 3.017v15.014H184V29.541c0-4.24-2.758-6.977-7.024-6.977h-2.802c-1.362 0-2.744.81-3.454 1.558l-.095.103-.104-1.264h-3.914v21.233h4.056V29.082c0-1.69 1.31-2.92 3.117-2.92h3.001zm-36.263 18.031V40.55h-2.578c-1.73 0-2.764-.991-2.764-2.66V26.557h5.342V22.96h-5.342v-8.09h-4.058v8.09h-3.642v3.597h3.642v11.217c0 3.96 2.52 6.42 6.578 6.42h2.822zm-49.946 0h2.82V40.55h-2.576c-1.733 0-2.765-.991-2.765-2.66V26.557h5.34V22.96h-5.34v-8.09h-4.053v8.09h-3.645v3.597h3.645v11.217c0 3.96 2.516 6.42 6.574 6.42m28.802-.002h4.057V14.001L119.374 14v30.192zm-16.945.395h3.632c1.595 0 2.888-.732 3.554-2.008l.1-.186.197 1.801h3.913V28.36c0-3.358-2.478-5.793-5.892-5.793h-4.676a5.924 5.924 0 0 0-5.935 5.726h4.053c.087-.907.817-2.13 1.882-2.13h4.676c1.012 0 1.837.801 1.837 1.786v3.663h-7.34c-3.25 0-5.893 2.625-5.893 5.846v1.238c0 2.86 2.068 5.892 5.892 5.892m-1.839-7.634c0-1.014.805-1.837 1.788-1.837h7.392v2.667c0 1.95-1.207 3.161-3.141 3.161h-4.25c-.984 0-1.789-.827-1.789-1.841v-2.15zm-22.919.262c0-3.328-2.27-5.741-5.397-5.741h-5.992c-1.003 0-1.789-.764-1.789-1.738v-1.785c0-1.003.786-1.787 1.789-1.787h4.527c1.383 0 2.084.634 2.084 1.884v.344h4.15v-.133c0-3.14-2.642-5.694-5.892-5.694h-4.723c-3.359 0-5.99 2.46-5.99 5.596v1.325c0 3.197 2.565 5.697 5.844 5.697h5.546c.987 0 1.786.823 1.786 1.834v2.088c0 .996-.837 1.837-1.833 1.837h-5.797c-1.193 0-1.934-.743-1.934-1.935v-.197h-4.102v.084c0 3.193 2.52 5.693 5.743 5.693h6.09c3.303 0 5.89-2.458 5.89-5.593v-1.78zm66.48.35c0 3.938 3.105 7.024 7.071 7.024h3.756c3.263 0 6.633-2.132 6.633-5.695v-.082h-4.104v.147c-.204 1.282-1.116 1.983-2.576 1.983h-3.412c-1.825 0-3.31-1.356-3.31-3.017v-2.813h13.453v-5.52c0-3.941-3.152-7.027-7.172-7.027h-3.164c-3.957 0-7.174 3.196-7.174 7.123v7.877zm4.058-8.383c0-1.693 1.411-3.019 3.21-3.019h2.971c1.804 0 3.212 1.326 3.212 3.019v2.43h-9.393v-2.43zM38.404 37.565c0 3.938 3.106 7.024 7.07 7.024h3.759c3.256 0 6.628-2.132 6.628-5.695v-.082h-4.104v.147c-.206 1.282-1.118 1.983-2.575 1.983H45.77c-1.826 0-3.313-1.356-3.313-3.017v-2.813h13.455v-5.52c0-3.941-3.152-7.027-7.174-7.027h-3.164c-3.955 0-7.17 3.196-7.17 7.123v7.877zm4.053-8.383c0-1.693 1.414-3.019 3.215-3.019h2.966c1.806 0 3.217 1.326 3.217 3.019v2.43h-9.398v-2.43z"/>         
        </symbol>
        <symbol id="handvaerk" viewBox="0 0 200 68">
            <path fill-rule="evenodd" d="M161.86 29.094c1.575-2.28 3.426-3.436 5.5-3.436.51 0 1.06.05 1.646.147v3.6c-.54-.14-1.29-.213-2.233-.213-1.963 0-3.667 1.04-5.065 3.09l-.016.025v15.088h-3.635V26.143h3.635v3.19l.167-.24zm19.265 4.926 8.896 13.375h-4.32l-6.94-10.847-.06-.095-2.49 2.47v8.472h-3.63V17.96h3.64v16.925l8.4-8.742h4.55l-7.96 7.822-.052.055zM40.89 15a4.366 4.366 0 0 1 4.362 4.36 4.367 4.367 0 0 1-4.36 4.362 4.366 4.366 0 0 1-4.362-4.36A4.366 4.366 0 0 1 40.89 15zm0 6.476c1.167 0 2.115-.95 2.115-2.115 0-1.16-.948-2.11-2.114-2.11a2.119 2.119 0 0 0 .01 4.24zm-20.76 4.182c4.753 0 7.163 2.627 7.163 7.808v13.93h-3.636v-13.77c0-1.763-.323-3.053-.96-3.834-.64-.787-1.702-1.185-3.152-1.185-1.958 0-3.94 1.166-5.888 3.467l-.02.025v15.29H10V17.96h3.636v11.06l.16-.18c1.872-2.112 4.003-3.182 6.335-3.182zm27.808 1.62c1.502 1.067 2.264 3.203 2.264 6.35v13.767h-3.615v-2.32l-.154.143C44.52 46.998 42.02 47.9 39 47.9c-2.096 0-3.843-.574-5.194-1.706-1.345-1.128-2.028-2.603-2.028-4.385 0-4.93 4.327-7.43 12.86-7.43h1.95v-.09c0-1.54-.084-2.67-.246-3.37-.166-.72-.635-1.32-1.394-1.79-.753-.47-1.958-.7-3.584-.7-3.395 0-5.19 1.22-5.34 3.63h-3.612c.317-4.26 3.396-6.42 9.154-6.42 2.716 0 4.86.54 6.372 1.62zm-1.35 14.6V37.01h-2.7c-5.555 0-8.373 1.547-8.373 4.598 0 1.116.42 1.987 1.25 2.59.82.593 1.94.895 3.326.895 1.27 0 2.5-.29 3.68-.858 1.18-.57 2.13-1.355 2.81-2.333l.02-.024zm18.833-16.22c4.76 0 7.17 2.627 7.17 7.808v13.93h-3.64v-13.77c0-1.763-.32-3.053-.96-3.834-.64-.787-1.7-1.185-3.15-1.185-1.96 0-3.94 1.166-5.89 3.467l-.02.025v15.29h-3.64V26.14h3.64v2.876l.16-.18c1.87-2.113 4.01-3.183 6.34-3.183zm14.09 3.03c1.69-2.01 3.85-3.03 6.41-3.03 2.29 0 4.24.712 5.82 2.12l.15.134v-9.95h3.61v29.433h-3.62v-2.728l-.16.195c-1.67 2.016-3.7 3.038-6.05 3.038-2.76 0-4.92-.994-6.43-2.955-1.51-1.968-2.28-4.66-2.28-8.005 0-3.463.86-6.24 2.56-8.253zm12.35 2.392c-1.65-1.75-3.57-2.635-5.7-2.635-1.65 0-2.99.724-3.98 2.15-.98 1.416-1.48 3.55-1.48 6.345 0 2.646.47 4.687 1.4 6.062.94 1.388 2.25 2.09 3.91 2.09 2.15 0 4.13-1.25 5.87-3.715l.02-.023v-10.25l-.02-.024zm11.16-4.937 5.75 16.96 5.74-16.96h3.93l-8.03 21.252h-3.27L99.1 26.143h3.924zm40.85-.485c2.99 0 5.39.972 7.13 2.89 1.74 1.92 2.62 4.69 2.62 8.23v.82h-15.56l.01.096c.15 2.475.8 4.345 1.92 5.56 1.12 1.22 2.57 1.84 4.3 1.84 1.32 0 2.51-.35 3.53-1.037 1.02-.678 1.57-1.648 1.65-2.883h3.75c-.31 2.136-1.273 3.803-2.87 4.955-1.623 1.17-3.662 1.77-6.054 1.77-3.654 0-6.416-1.38-8.206-4.1l-.08-.12-.076.12c-.73 1.19-1.75 2.18-3.04 2.95-1.283.76-3.24 1.15-5.81 1.15-2.08 0-3.79-.57-5.08-1.7-1.285-1.12-1.94-2.6-1.94-4.4 0-4.93 4.185-7.43 12.435-7.43h1.97v-.09c0-1.3-.1-2.35-.288-3.14-.194-.8-.66-1.46-1.39-1.97-.726-.5-1.85-.754-3.344-.754-3.18 0-4.91 1.225-5.134 3.64H120.7c.342-4.26 3.353-6.424 8.952-6.424 3.623 0 6.08.906 7.294 2.69l.06.094.08-.08c1.728-1.79 4.016-2.7 6.806-2.7zm-5.74 9.13h11.67l-.01-.104c-.62-4.14-2.61-6.24-5.91-6.24-3.23 0-5.15 2.1-5.72 6.24l-.01.105zm-3.68 3.85V37.01h-2.69c-5.29 0-7.97 1.547-7.97 4.598 0 2.312 1.47 3.485 4.36 3.485 1.9 0 3.45-.552 4.59-1.642 1.15-1.09 1.73-2.71 1.73-4.81z"/>
        </symbol>
        <symbol id="XXX" viewBox="0 0 200 68">
            
        </symbol>
        <symbol id="YYY" viewBox="0 0 200 68">

        </symbol>
        <symbol id="ZZZ" viewBox="0 0 200 68">

        </symbol>
        <symbol id="AAA" viewBox="0 0 200 68">

        </symbol>
        <symbol id="BBB" viewBox="0 0 200 68">

        </symbol>
    </defs>
</svg>