<svg viewBox="0 0 200 68" version="1.1" xmlns="http://www.w3.org/2000/svg" xmlns:xlink="http://www.w3.org/1999/xlink"><title>Artboard</title><g id="Artboard" stroke="none" stroke-width="1" fill="currentColor" fill-rule="evenodd"><g id="ulx" transform="translate(50.000000, 18.000000)" fill="currentColor" fill-rule="nonzero"><path d="M13.2468558,32 C21.3821031,32 26.6267202,27.274 26.6267202,17.868 L26.6267202,0 L21.1595443,0 L21.1595443,18.138 C21.1595443,23.944 18.1813393,26.914 13.3357476,26.914 C8.44603932,26.914 5.46717583,23.764 5.46717583,17.9126667 L5.46717583,0 L0,0 L0,18.138 C0,27.2733333 5.15638376,32 13.2468558,32 Z M38.3545137,31.5046667 L60.1810755,31.5046667 L60.1810755,26.4646667 L43.822348,26.4646667 L43.822348,0 L38.3545137,0 L38.3545137,31.5046667 Z M70.8829921,31.5046667 L77.1515107,31.5046667 L85.3749913,19.578 L93.5543557,31.5046667 L100,31.5046667 L88.7087641,15.3933333 L99.5555409,0 L93.2870215,0 L85.508,11.2966667 L77.7730955,0 L71.3274512,0 L82.2183441,15.4826667 L70.8829921,31.5046667 Z" id="Shape"></path></g></g></svg>